<svg width="32" height="32" viewBox="0 0 32 32" fill="none" xmlns="http://www.w3.org/2000/svg">
<path d="M0 4C0 1.79086 1.79086 0 4 0H28C30.2091 0 32 1.79086 32 4V28C32 30.2091 30.2091 32 28 32H4C1.79086 32 0 30.2091 0 28V4Z" fill="#0B5FFF"/>
<path d="M22.9944 15.0001H16.9816V9.00293C16.9816 8.45293 16.5316 8.00293 15.9816 8.00293C15.4316 8.00293 14.9816 8.45293 14.9816 9.00293V15.0001H9C8.45 15.0001 8 15.4501 8 16.0001C8 16.5501 8.45 17.0001 9 17.0001H14.9816V22.9973C14.9816 23.5473 15.4316 23.9973 15.9816 23.9973C16.5316 23.9973 16.9816 23.5473 16.9816 22.9973V17.0001H22.9944C23.5444 17.0001 23.9944 16.5501 23.9944 16.0001C23.9944 15.4501 23.5444 15.0001 22.9944 15.0001Z" fill="white"/>
</svg>
